<svg xmlns="http://www.w3.org/2000/svg" width="23.372" height="21.479" viewBox="0 0 23.372 21.479">
  <path id="Контур_79" data-name="Контур 79" d="M387.205,1003.3h-4.557v-14.59h4.557Zm-2.395-16.416h-.034a2.809,2.809,0,1,1,.034,0Zm20.622,16.416h-5.167V995.75c0-1.976-.807-3.324-2.584-3.324a2.61,2.61,0,0,0-2.466,1.789,3.3,3.3,0,0,0-.112,1.191v7.9h-5.117s.068-13.374,0-14.59H395.1V991c.3-1,1.938-2.428,4.546-2.428,3.238,0,5.783,2.1,5.783,6.617Z" transform="translate(-382.06 -981.823)" fill="#2e2e2e"/>
</svg>
