<svg xmlns="http://www.w3.org/2000/svg" width="23.972" height="19.482" viewBox="0 0 23.972 19.482">
  <path id="Контур_78" data-name="Контур 78" d="M406.032,389.625a9.868,9.868,0,0,1-2.825.774,4.913,4.913,0,0,0,2.162-2.72,9.8,9.8,0,0,1-3.124,1.192,4.919,4.919,0,0,0-8.505,3.365,4.849,4.849,0,0,0,.126,1.12,13.967,13.967,0,0,1-10.138-5.139,4.929,4.929,0,0,0,1.523,6.568,4.929,4.929,0,0,1-2.229-.615v.061a4.919,4.919,0,0,0,3.947,4.822,4.786,4.786,0,0,1-1.3.174,4.864,4.864,0,0,1-.924-.087,4.917,4.917,0,0,0,4.593,3.413,9.947,9.947,0,0,1-7.281,2.038,13.987,13.987,0,0,0,21.531-11.784c0-.214,0-.427-.013-.636a9.971,9.971,0,0,0,2.454-2.546" transform="translate(-382.06 -387.318)" fill="#2e2e2e"/>
</svg>
